<mxfile host="app.diagrams.net" agent="Mozilla/5.0 (Windows NT 10.0; Win64; x64) AppleWebKit/537.36 (KHTML, like Gecko) Chrome/131.0.0.0 Safari/537.36" version="24.9.1">
  <diagram name="Page-1" id="LCgPQnHAyw77JMyma-C3">
    <mxGraphModel dx="926" dy="448" grid="1" gridSize="10" guides="1" tooltips="1" connect="1" arrows="1" fold="1" page="1" pageScale="1" pageWidth="850" pageHeight="1100" math="0" shadow="0">
      <root>
        <mxCell id="0" />
        <mxCell id="1" parent="0" />
        <mxCell id="MyNX13WtFqXK99jWimWp-2" value="" style="ellipse;html=1;shape=startState;fillColor=#000000;strokeColor=#000000;" vertex="1" parent="1">
          <mxGeometry x="415" y="100" width="30" height="30" as="geometry" />
        </mxCell>
        <mxCell id="MyNX13WtFqXK99jWimWp-3" value="" style="edgeStyle=orthogonalEdgeStyle;html=1;verticalAlign=bottom;endArrow=open;endSize=8;strokeColor=#000000;rounded=0;entryX=0.5;entryY=0;entryDx=0;entryDy=0;" edge="1" source="MyNX13WtFqXK99jWimWp-2" parent="1" target="MyNX13WtFqXK99jWimWp-4">
          <mxGeometry relative="1" as="geometry">
            <mxPoint x="550" y="130" as="targetPoint" />
            <Array as="points">
              <mxPoint x="430" y="160" />
              <mxPoint x="430" y="160" />
            </Array>
          </mxGeometry>
        </mxCell>
        <mxCell id="MyNX13WtFqXK99jWimWp-4" value="Start Payment" style="rounded=1;whiteSpace=wrap;html=1;" vertex="1" parent="1">
          <mxGeometry x="370" y="170" width="120" height="60" as="geometry" />
        </mxCell>
        <mxCell id="MyNX13WtFqXK99jWimWp-8" value="" style="edgeStyle=orthogonalEdgeStyle;html=1;verticalAlign=bottom;endArrow=open;endSize=8;strokeColor=#000000;rounded=0;entryX=0.5;entryY=0;entryDx=0;entryDy=0;exitX=0.5;exitY=1;exitDx=0;exitDy=0;" edge="1" parent="1" source="MyNX13WtFqXK99jWimWp-4" target="MyNX13WtFqXK99jWimWp-25">
          <mxGeometry relative="1" as="geometry">
            <mxPoint x="429.47" y="320" as="targetPoint" />
            <mxPoint x="429.47" y="230" as="sourcePoint" />
            <Array as="points" />
          </mxGeometry>
        </mxCell>
        <mxCell id="MyNX13WtFqXK99jWimWp-22" value="&lt;font style=&quot;font-size: 20px;&quot;&gt;System Activity Diagram:&lt;/font&gt;&lt;div&gt;&lt;span style=&quot;font-size: 20px;&quot;&gt;Make Payment&lt;/span&gt;&lt;/div&gt;" style="text;html=1;align=center;verticalAlign=middle;resizable=0;points=[];autosize=1;strokeColor=none;fillColor=none;" vertex="1" parent="1">
          <mxGeometry x="305" y="10" width="240" height="60" as="geometry" />
        </mxCell>
        <mxCell id="MyNX13WtFqXK99jWimWp-25" value="User Status" style="rhombus;whiteSpace=wrap;html=1;" vertex="1" parent="1">
          <mxGeometry x="390" y="260" width="80" height="80" as="geometry" />
        </mxCell>
        <mxCell id="MyNX13WtFqXK99jWimWp-27" value="" style="edgeStyle=orthogonalEdgeStyle;html=1;verticalAlign=bottom;endArrow=open;endSize=8;strokeColor=#000000;rounded=0;exitX=0.5;exitY=1;exitDx=0;exitDy=0;entryX=1;entryY=0.5;entryDx=0;entryDy=0;" edge="1" parent="1" source="MyNX13WtFqXK99jWimWp-30" target="MyNX13WtFqXK99jWimWp-48">
          <mxGeometry relative="1" as="geometry">
            <mxPoint x="490.0000000000002" y="460" as="targetPoint" />
            <mxPoint x="694.47" y="330" as="sourcePoint" />
            <Array as="points">
              <mxPoint x="695" y="470" />
            </Array>
          </mxGeometry>
        </mxCell>
        <mxCell id="MyNX13WtFqXK99jWimWp-31" value="Logged in" style="edgeLabel;html=1;align=center;verticalAlign=middle;resizable=0;points=[];" vertex="1" connectable="0" parent="MyNX13WtFqXK99jWimWp-27">
          <mxGeometry x="-0.207" y="-1" relative="1" as="geometry">
            <mxPoint x="4" y="-79" as="offset" />
          </mxGeometry>
        </mxCell>
        <mxCell id="MyNX13WtFqXK99jWimWp-28" value="" style="edgeStyle=orthogonalEdgeStyle;html=1;verticalAlign=bottom;endArrow=open;endSize=8;strokeColor=#000000;rounded=0;entryX=0;entryY=0.5;entryDx=0;entryDy=0;" edge="1" parent="1" target="MyNX13WtFqXK99jWimWp-30">
          <mxGeometry relative="1" as="geometry">
            <mxPoint x="640" y="299.47" as="targetPoint" />
            <mxPoint x="470" y="299.47" as="sourcePoint" />
            <Array as="points" />
          </mxGeometry>
        </mxCell>
        <mxCell id="MyNX13WtFqXK99jWimWp-29" value="Not Logged In" style="edgeLabel;html=1;align=center;verticalAlign=middle;resizable=0;points=[];" vertex="1" connectable="0" parent="MyNX13WtFqXK99jWimWp-28">
          <mxGeometry x="-0.1542" relative="1" as="geometry">
            <mxPoint as="offset" />
          </mxGeometry>
        </mxCell>
        <mxCell id="MyNX13WtFqXK99jWimWp-30" value="User Login" style="rounded=1;whiteSpace=wrap;html=1;" vertex="1" parent="1">
          <mxGeometry x="635" y="270" width="120" height="60" as="geometry" />
        </mxCell>
        <mxCell id="MyNX13WtFqXK99jWimWp-32" value="" style="edgeStyle=orthogonalEdgeStyle;html=1;verticalAlign=bottom;endArrow=open;endSize=8;strokeColor=#000000;rounded=0;entryX=0.5;entryY=0;entryDx=0;entryDy=0;exitX=0.5;exitY=1;exitDx=0;exitDy=0;" edge="1" parent="1" source="MyNX13WtFqXK99jWimWp-25" target="MyNX13WtFqXK99jWimWp-48">
          <mxGeometry relative="1" as="geometry">
            <mxPoint x="429" y="430" as="targetPoint" />
            <mxPoint x="429" y="340" as="sourcePoint" />
            <Array as="points">
              <mxPoint x="430" y="390" />
              <mxPoint x="430" y="390" />
            </Array>
          </mxGeometry>
        </mxCell>
        <mxCell id="MyNX13WtFqXK99jWimWp-33" value="Logged in" style="edgeLabel;html=1;align=center;verticalAlign=middle;resizable=0;points=[];" vertex="1" connectable="0" parent="MyNX13WtFqXK99jWimWp-32">
          <mxGeometry x="-0.207" y="-1" relative="1" as="geometry">
            <mxPoint x="2" y="6" as="offset" />
          </mxGeometry>
        </mxCell>
        <mxCell id="MyNX13WtFqXK99jWimWp-40" value="Subtract credit amount from total" style="rounded=1;whiteSpace=wrap;html=1;" vertex="1" parent="1">
          <mxGeometry x="190" y="520" width="120" height="60" as="geometry" />
        </mxCell>
        <mxCell id="MyNX13WtFqXK99jWimWp-48" value="Apply&amp;nbsp;&lt;div&gt;Credits&lt;/div&gt;" style="rhombus;whiteSpace=wrap;html=1;" vertex="1" parent="1">
          <mxGeometry x="390" y="430" width="80" height="80" as="geometry" />
        </mxCell>
        <mxCell id="MyNX13WtFqXK99jWimWp-51" value="" style="edgeStyle=orthogonalEdgeStyle;html=1;verticalAlign=bottom;endArrow=open;endSize=8;strokeColor=#000000;rounded=0;exitX=0;exitY=0.5;exitDx=0;exitDy=0;entryX=0.5;entryY=0;entryDx=0;entryDy=0;" edge="1" parent="1" source="MyNX13WtFqXK99jWimWp-48" target="MyNX13WtFqXK99jWimWp-40">
          <mxGeometry relative="1" as="geometry">
            <mxPoint x="215" y="420" as="targetPoint" />
            <mxPoint x="175" y="430" as="sourcePoint" />
            <Array as="points">
              <mxPoint x="250" y="470" />
            </Array>
          </mxGeometry>
        </mxCell>
        <mxCell id="MyNX13WtFqXK99jWimWp-52" value="Yes" style="edgeLabel;html=1;align=center;verticalAlign=middle;resizable=0;points=[];" vertex="1" connectable="0" parent="MyNX13WtFqXK99jWimWp-51">
          <mxGeometry x="-0.207" y="-1" relative="1" as="geometry">
            <mxPoint x="2" y="1" as="offset" />
          </mxGeometry>
        </mxCell>
        <mxCell id="MyNX13WtFqXK99jWimWp-53" value="" style="edgeStyle=orthogonalEdgeStyle;html=1;verticalAlign=bottom;endArrow=open;endSize=8;strokeColor=#000000;rounded=0;entryX=0.5;entryY=0;entryDx=0;entryDy=0;exitX=0.5;exitY=1;exitDx=0;exitDy=0;" edge="1" parent="1">
          <mxGeometry relative="1" as="geometry">
            <mxPoint x="429.47" y="600" as="targetPoint" />
            <mxPoint x="429.47" y="510" as="sourcePoint" />
            <Array as="points">
              <mxPoint x="429.47" y="560" />
              <mxPoint x="429.47" y="560" />
            </Array>
          </mxGeometry>
        </mxCell>
        <mxCell id="MyNX13WtFqXK99jWimWp-54" value="No" style="edgeLabel;html=1;align=center;verticalAlign=middle;resizable=0;points=[];" vertex="1" connectable="0" parent="MyNX13WtFqXK99jWimWp-53">
          <mxGeometry x="-0.207" y="-1" relative="1" as="geometry">
            <mxPoint x="1" y="6" as="offset" />
          </mxGeometry>
        </mxCell>
        <mxCell id="MyNX13WtFqXK99jWimWp-56" value="User&amp;nbsp;&lt;div&gt;Type&lt;/div&gt;" style="rhombus;whiteSpace=wrap;html=1;" vertex="1" parent="1">
          <mxGeometry x="390" y="600" width="80" height="80" as="geometry" />
        </mxCell>
        <mxCell id="MyNX13WtFqXK99jWimWp-59" value="" style="edgeStyle=orthogonalEdgeStyle;html=1;verticalAlign=bottom;endArrow=open;endSize=8;strokeColor=#000000;rounded=0;entryX=0.5;entryY=0;entryDx=0;entryDy=0;exitX=0.5;exitY=1;exitDx=0;exitDy=0;" edge="1" parent="1">
          <mxGeometry relative="1" as="geometry">
            <mxPoint x="429.47" y="770" as="targetPoint" />
            <mxPoint x="429.47" y="680" as="sourcePoint" />
            <Array as="points">
              <mxPoint x="429.47" y="730" />
              <mxPoint x="429.47" y="730" />
            </Array>
          </mxGeometry>
        </mxCell>
        <mxCell id="MyNX13WtFqXK99jWimWp-60" value="Registered" style="edgeLabel;html=1;align=center;verticalAlign=middle;resizable=0;points=[];" vertex="1" connectable="0" parent="MyNX13WtFqXK99jWimWp-59">
          <mxGeometry x="-0.207" y="-1" relative="1" as="geometry">
            <mxPoint x="1" y="4" as="offset" />
          </mxGeometry>
        </mxCell>
        <mxCell id="MyNX13WtFqXK99jWimWp-63" value="" style="edgeStyle=orthogonalEdgeStyle;html=1;verticalAlign=bottom;endArrow=open;endSize=8;strokeColor=#000000;rounded=0;entryX=0;entryY=0.5;entryDx=0;entryDy=0;exitX=0.5;exitY=1;exitDx=0;exitDy=0;" edge="1" parent="1" target="MyNX13WtFqXK99jWimWp-56">
          <mxGeometry relative="1" as="geometry">
            <mxPoint x="249.47000000000003" y="670" as="targetPoint" />
            <mxPoint x="249.47000000000003" y="580" as="sourcePoint" />
            <Array as="points">
              <mxPoint x="249" y="640" />
            </Array>
          </mxGeometry>
        </mxCell>
        <mxCell id="MyNX13WtFqXK99jWimWp-65" value="" style="edgeStyle=orthogonalEdgeStyle;html=1;verticalAlign=bottom;endArrow=open;endSize=8;strokeColor=#000000;rounded=0;exitX=1;exitY=0.5;exitDx=0;exitDy=0;entryX=0.5;entryY=0;entryDx=0;entryDy=0;" edge="1" parent="1" source="MyNX13WtFqXK99jWimWp-56" target="MyNX13WtFqXK99jWimWp-71">
          <mxGeometry relative="1" as="geometry">
            <mxPoint x="635" y="640" as="targetPoint" />
            <mxPoint x="585" y="530" as="sourcePoint" />
            <Array as="points">
              <mxPoint x="645" y="640" />
            </Array>
          </mxGeometry>
        </mxCell>
        <mxCell id="MyNX13WtFqXK99jWimWp-66" value="Regular" style="edgeLabel;html=1;align=center;verticalAlign=middle;resizable=0;points=[];" vertex="1" connectable="0" parent="MyNX13WtFqXK99jWimWp-65">
          <mxGeometry x="-0.207" y="-1" relative="1" as="geometry">
            <mxPoint x="54" y="79" as="offset" />
          </mxGeometry>
        </mxCell>
        <mxCell id="MyNX13WtFqXK99jWimWp-69" value="Use existing credit card on file" style="rounded=1;whiteSpace=wrap;html=1;" vertex="1" parent="1">
          <mxGeometry x="370" y="770" width="120" height="60" as="geometry" />
        </mxCell>
        <mxCell id="MyNX13WtFqXK99jWimWp-71" value="User enters credit card information" style="rounded=1;whiteSpace=wrap;html=1;" vertex="1" parent="1">
          <mxGeometry x="585" y="770" width="120" height="60" as="geometry" />
        </mxCell>
        <mxCell id="MyNX13WtFqXK99jWimWp-72" value="Process payment" style="rounded=1;whiteSpace=wrap;html=1;" vertex="1" parent="1">
          <mxGeometry x="370" y="890" width="120" height="60" as="geometry" />
        </mxCell>
        <mxCell id="MyNX13WtFqXK99jWimWp-73" value="" style="edgeStyle=orthogonalEdgeStyle;html=1;verticalAlign=bottom;endArrow=open;endSize=8;strokeColor=#000000;rounded=0;exitX=0.5;exitY=1;exitDx=0;exitDy=0;" edge="1" parent="1">
          <mxGeometry relative="1" as="geometry">
            <mxPoint x="430" y="890" as="targetPoint" />
            <mxPoint x="430" y="830" as="sourcePoint" />
            <Array as="points">
              <mxPoint x="430" y="880" />
              <mxPoint x="430" y="880" />
            </Array>
          </mxGeometry>
        </mxCell>
        <mxCell id="MyNX13WtFqXK99jWimWp-75" value="" style="edgeStyle=orthogonalEdgeStyle;html=1;verticalAlign=bottom;endArrow=open;endSize=8;strokeColor=#000000;rounded=0;entryX=1;entryY=0.5;entryDx=0;entryDy=0;" edge="1" parent="1" target="MyNX13WtFqXK99jWimWp-72">
          <mxGeometry relative="1" as="geometry">
            <mxPoint x="440" y="900" as="targetPoint" />
            <mxPoint x="645" y="830" as="sourcePoint" />
            <Array as="points">
              <mxPoint x="645" y="833" />
              <mxPoint x="645" y="920" />
            </Array>
          </mxGeometry>
        </mxCell>
        <mxCell id="MyNX13WtFqXK99jWimWp-76" value="Email receipt" style="rounded=1;whiteSpace=wrap;html=1;" vertex="1" parent="1">
          <mxGeometry x="370" y="1000" width="120" height="60" as="geometry" />
        </mxCell>
        <mxCell id="MyNX13WtFqXK99jWimWp-77" value="" style="edgeStyle=orthogonalEdgeStyle;html=1;verticalAlign=bottom;endArrow=open;endSize=8;strokeColor=#000000;rounded=0;exitX=0.5;exitY=1;exitDx=0;exitDy=0;entryX=0.5;entryY=0;entryDx=0;entryDy=0;" edge="1" parent="1" source="MyNX13WtFqXK99jWimWp-72" target="MyNX13WtFqXK99jWimWp-76">
          <mxGeometry relative="1" as="geometry">
            <mxPoint x="440" y="900" as="targetPoint" />
            <mxPoint x="440" y="840" as="sourcePoint" />
            <Array as="points">
              <mxPoint x="430" y="970" />
              <mxPoint x="430" y="970" />
            </Array>
          </mxGeometry>
        </mxCell>
      </root>
    </mxGraphModel>
  </diagram>
</mxfile>
